<svg width="155" height="40" viewBox="0 0 155 40" fill="none" xmlns="http://www.w3.org/2000/svg">
<path d="M29.0418 16.875C32.0066 16.875 32.6736 18.1731 32.6736 19.7921C32.6736 21.5083 31.8668 22.7379 29.0541 22.7379C26.2595 22.7379 25.4517 21.5798 25.4517 19.7921C25.4517 18.0331 26.3322 16.875 29.0418 16.875Z" fill="white"/>
<path d="M60.0252 16.875C62.99 16.875 63.657 18.1731 63.657 19.7921C63.657 21.5083 62.8492 22.7379 60.0375 22.7379C57.2438 22.7379 56.4351 21.5798 56.4351 19.7921C56.4351 18.0331 57.3156 16.875 60.0252 16.875Z" fill="white"/>
<path fill-rule="evenodd" clip-rule="evenodd" d="M2.79272 36.6666V2.90186H152.615V36.6666H2.79272ZM74.1977 34.7619H150.726V4.80662H74.1977V34.7619ZM29.0561 25.6123C34.3195 25.6123 36.5322 23.3238 36.5322 19.7495C36.5322 16.1171 34.0398 13.958 29.0561 13.958C24.1489 13.958 21.5658 16.3028 21.5658 19.7495C21.5658 23.639 24.2755 25.6123 29.0561 25.6123ZM10.7565 14.2152V25.4409H21.3797V22.4514H14.5999V14.2152H10.7565ZM48.4214 25.4409L48.3222 24.3533C47.0364 25.2782 45.4715 25.7234 43.8958 25.6123C41.5273 25.6123 39.5545 24.8971 38.4482 23.4533C37.7184 22.3992 37.35 21.1339 37.3985 19.8495C37.3571 18.592 37.7383 17.3574 38.4803 16.3457C39.5999 14.9447 41.6293 14.0152 44.6507 14.0152C48.1266 14.0152 50.1692 15.0876 51.0479 16.8895C51.2364 17.3139 51.3473 17.7691 51.3748 18.2333H47.6976C47.605 17.9512 47.4325 17.7026 47.2016 17.518C46.4691 17.0285 45.5945 16.8021 44.7187 16.8752C44.2051 16.8124 43.6839 16.8602 43.19 17.0156C42.696 17.1709 42.2404 17.4301 41.8532 17.7761C41.4135 18.3828 41.2071 19.1297 41.2722 19.878C41.2211 20.592 41.4109 21.3025 41.8107 21.8942C42.2014 22.2612 42.6658 22.5391 43.1724 22.7094C43.6791 22.8796 44.216 22.9381 44.7471 22.8809C45.8017 22.9674 46.8489 22.6395 47.6693 21.9657C47.8455 21.7436 47.967 21.4824 48.0236 21.2038H44.0668V18.7914H51.4711V25.4409H48.4214ZM60.0394 25.6123C65.3018 25.6123 67.5155 23.3238 67.5155 19.7495C67.5155 16.1171 65.0192 13.958 60.0394 13.958C55.1322 13.958 52.5491 16.3028 52.5491 19.7495C52.5491 23.639 55.2588 25.6123 60.0394 25.6123Z" fill="white"/>
<path d="M80.6716 25.3981V14.1724H83.4115V25.3981H80.6716Z" fill="white"/>
<path d="M97.4813 20.7076C96.7869 21.6228 95.5917 22.0409 93.9072 22.0514C93.5519 22.0514 88.8422 22.0371 88.8422 22.0371V25.398H86.1609V14.1723H93.9081C94.529 14.1061 95.1571 14.1725 95.7505 14.3671C96.3447 14.5617 96.8908 14.8802 97.3547 15.3018C97.9669 16.1058 98.2645 17.1083 98.1918 18.119C98.2541 19.0382 98.0038 19.9515 97.4813 20.7076ZM95.2828 17.0476C94.9994 16.619 94.3881 16.3809 93.3535 16.3809H88.828V19.798H93.3243C94.4306 19.798 95.0135 19.5695 95.2828 19.1256C95.4425 18.813 95.5114 18.4609 95.4812 18.1104C95.5048 17.7449 95.4368 17.3793 95.2828 17.0476Z" fill="white"/>
<path d="M106.093 25.5695C101.042 25.5695 99.4966 23.6648 99.4966 21.78H102.362C102.362 22.7095 103.624 23.4105 106.221 23.4105C108.802 23.4105 109.483 22.9524 109.483 22.2086C109.483 21.3791 108.973 21.1219 106.575 20.8505C106.103 20.8076 104.817 20.6505 104.334 20.5791C100.933 20.1924 99.6232 19.1772 99.6232 17.361C99.6232 15.4448 101.539 14.001 105.695 14.001C110.207 14.001 111.938 15.7886 111.938 17.6476H109.103C109.103 16.7038 108.039 16.16 105.528 16.16C102.946 16.16 102.393 16.5172 102.393 17.2181C102.393 17.9476 102.96 18.1762 105.7 18.5048C106.325 18.5915 107.714 18.7486 108.097 18.7905C110.992 19.0905 112.297 20.1486 112.297 22.0219C112.292 24.2534 110.306 25.5695 106.093 25.5695Z" fill="white"/>
<path d="M120.365 25.5552C116.663 25.5552 114.251 24.0819 114.251 20.9838V14.1724H116.96V21.0219C116.96 22.4381 118.11 23.3809 120.478 23.3809C122.62 23.3809 123.897 22.4952 123.897 21.0219V14.1724H126.579V21.2381C126.579 24.0543 124.337 25.5552 120.365 25.5552Z" fill="white"/>
<path d="M141.261 25.3981V17.9047L137.785 25.3981H135.147L131.77 17.9047V25.3981H129.219V14.1724H132.675L136.506 22.7238L140.421 14.1724H143.822V25.3981H141.261Z" fill="white"/>
</svg>
