<svg width="99" height="50" viewBox="0 0 99 50" fill="none" xmlns="http://www.w3.org/2000/svg">
<path d="M3.03345 28.938H5.80971V42.5563H3.03345V28.938Z" fill="white"/>
<path d="M7.4199 37.89C7.41807 36.9119 7.70633 35.9551 8.24823 35.1409C8.79012 34.3267 9.56127 33.6916 10.4641 33.316C11.3669 32.9404 12.3608 32.8412 13.32 33.0309C14.2792 33.2206 15.1607 33.6907 15.8526 34.3818C16.5447 35.0727 17.0163 35.9536 17.2077 36.9128C17.3992 37.8721 17.3019 38.8666 16.9281 39.7705C16.5543 40.6743 15.9209 41.447 15.108 41.9906C14.2952 42.5343 13.3394 42.8244 12.3617 42.8244C11.7113 42.8319 11.0662 42.7094 10.4639 42.4641C9.86162 42.2189 9.3143 41.8559 8.85405 41.3963C8.3938 40.9368 8.02988 40.3899 7.78362 39.7877C7.53735 39.1857 7.4137 38.5405 7.4199 37.89ZM14.5086 37.89C14.4977 37.4677 14.3625 37.058 14.1201 36.7123C13.8776 36.3664 13.5387 36.0998 13.1455 35.9457C12.7523 35.7916 12.3225 35.757 11.9098 35.846C11.497 35.935 11.1197 36.1438 10.8249 36.4463C10.5303 36.7487 10.3312 37.1315 10.2528 37.5466C10.1743 37.9616 10.22 38.3906 10.3839 38.7798C10.548 39.169 10.8231 39.5013 11.1748 39.7349C11.5266 39.9685 11.9394 40.0932 12.3617 40.0933C12.6505 40.1015 12.9379 40.0496 13.2058 39.941C13.4736 39.8324 13.716 39.6694 13.9178 39.4624C14.1195 39.2553 14.2762 39.0087 14.3778 38.7381C14.4796 38.4675 14.524 38.1787 14.5086 37.89Z" fill="white"/>
<path d="M28.464 33.2241V42.0931C28.464 45.2316 26.0117 46.5555 23.5316 46.5555C22.6595 46.6204 21.7863 46.4439 21.0077 46.0455C20.2291 45.6471 19.5751 45.042 19.1174 44.2966L21.5049 42.9172C21.6944 43.2991 21.9941 43.6155 22.3654 43.8251C22.7366 44.0347 23.1622 44.128 23.5871 44.0928C23.8666 44.1395 24.1532 44.1213 24.4246 44.0395C24.6961 43.9578 24.9451 43.8149 25.1526 43.6217C25.36 43.4284 25.5203 43.1901 25.6211 42.9251C25.722 42.6601 25.7606 42.3755 25.734 42.0931V41.2322C25.4077 41.6339 24.9912 41.953 24.5185 42.1637C24.0459 42.3744 23.5302 42.4708 23.0133 42.445C21.7567 42.445 20.5516 41.9456 19.6629 41.0567C18.7744 40.1677 18.2751 38.9621 18.2751 37.7049C18.2751 36.4477 18.7744 35.2421 19.6629 34.3532C20.5516 33.4643 21.7567 32.9649 23.0133 32.9649C23.5299 32.9413 24.0448 33.0386 24.5172 33.2491C24.9895 33.4597 25.4062 33.7776 25.734 34.1776V33.2519L28.464 33.2241ZM25.734 37.7049C25.7525 37.2547 25.6359 36.8092 25.3994 36.4257C25.1627 36.0422 24.8168 35.7383 24.4062 35.5531C23.9956 35.3678 23.5389 35.3097 23.095 35.3862C22.651 35.4625 22.2401 35.6701 21.9151 35.982C21.5899 36.2939 21.3655 36.696 21.2706 37.1365C21.1757 37.577 21.2147 38.0359 21.3825 38.454C21.5504 38.8722 21.8394 39.2306 22.2125 39.4831C22.5856 39.7358 23.0256 39.8709 23.476 39.8713C23.7701 39.8921 24.0652 39.8511 24.3423 39.7508C24.6196 39.6505 24.8727 39.4933 25.0855 39.2892C25.2981 39.0851 25.4658 38.8386 25.5775 38.5658C25.6892 38.2929 25.7425 37.9997 25.734 37.7049Z" fill="white"/>
<path d="M30.0649 37.89C30.0631 36.9119 30.3514 35.9551 30.8932 35.1409C31.4352 34.3267 32.2063 33.6916 33.1091 33.316C34.0119 32.9404 35.0058 32.8412 35.965 33.0309C36.9242 33.2206 37.8057 33.6907 38.4977 34.3818C39.1897 35.0727 39.6613 35.9536 39.8528 36.9128C40.0442 37.8721 39.9469 38.8666 39.5731 39.7705C39.1993 40.6743 38.5659 41.447 37.7531 41.9906C36.9402 42.5343 35.9844 42.8244 35.0067 42.8244C34.3564 42.8319 33.7112 42.7094 33.1089 42.4641C32.5066 42.2189 31.9593 41.8559 31.4991 41.3963C31.0388 40.9368 30.6749 40.3899 30.4286 39.7877C30.1823 39.1857 30.0587 38.5405 30.0649 37.89ZM37.1537 37.89C37.1427 37.4677 37.0075 37.058 36.7651 36.7123C36.5226 36.3664 36.1837 36.0998 35.7905 35.9457C35.3974 35.7916 34.9676 35.757 34.5548 35.846C34.142 35.935 33.7647 36.1438 33.4699 36.4463C33.1752 36.7487 32.9762 37.1315 32.8977 37.5466C32.8193 37.9616 32.865 38.3906 33.0289 38.7798C33.193 39.169 33.4681 39.5013 33.8198 39.7349C34.1716 39.9685 34.5844 40.0932 35.0067 40.0933C35.294 40.0988 35.5794 40.0451 35.8451 39.9353C36.1106 39.8255 36.3508 39.6622 36.5506 39.4554C36.7503 39.2487 36.9052 39.0029 37.0059 38.7336C37.1064 38.4643 37.1504 38.1771 37.1351 37.89H37.1537Z" fill="white"/>
<path d="M41.2349 30.7245C41.2349 30.3912 41.3336 30.0655 41.5187 29.7884C41.7038 29.5113 41.9668 29.2954 42.2745 29.1678C42.5824 29.0403 42.921 29.0069 43.2477 29.0719C43.5744 29.1369 43.8745 29.2974 44.1101 29.533C44.3457 29.7687 44.506 30.0689 44.571 30.3957C44.636 30.7226 44.6026 31.0614 44.4752 31.3693C44.3477 31.6771 44.1318 31.9404 43.8549 32.1255C43.5778 32.3106 43.2523 32.4094 42.9191 32.4094C42.4732 32.407 42.0462 32.2287 41.7308 31.9132C41.4155 31.5978 41.2373 31.1707 41.2349 30.7245ZM41.5217 33.2241H44.298V42.556H41.5217V33.2241Z" fill="white"/>
<path d="M56.4022 37.8902C56.4358 38.5071 56.3472 39.1245 56.1414 39.707C55.9355 40.2894 55.6166 40.8254 55.2029 41.284C54.7891 41.7426 54.2888 42.1149 53.7307 42.3793C53.1726 42.6437 52.5677 42.7951 51.9509 42.8247C51.4331 42.8495 50.916 42.7605 50.4364 42.5637C49.9567 42.367 49.526 42.0674 49.1747 41.686V46.3149H46.3984V33.2242H49.1747V34.1037C49.526 33.7224 49.9567 33.4227 50.4364 33.226C50.916 33.0292 51.4331 32.9402 51.9509 32.965C52.5669 32.9946 53.171 33.1457 53.7284 33.4095C54.286 33.6734 54.7859 34.0448 55.1994 34.5025C55.6131 34.9601 55.9322 35.4949 56.1386 36.0763C56.345 36.6576 56.4346 37.2741 56.4022 37.8902ZM53.6259 37.8902C53.615 37.4557 53.4768 37.0339 53.2285 36.6772C52.9803 36.3205 52.633 36.0443 52.2295 35.8831C51.8261 35.7219 51.3841 35.6826 50.9586 35.7701C50.533 35.8576 50.1423 36.068 49.8351 36.3754C49.5279 36.6827 49.3176 37.0734 49.23 37.4992C49.1426 37.925 49.1819 38.3671 49.343 38.7707C49.5043 39.1743 49.7802 39.5219 50.1368 39.7701C50.4935 40.0184 50.9151 40.1567 51.3494 40.1676C51.6525 40.187 51.9562 40.1411 52.2402 40.0332C52.5241 39.9253 52.7817 39.7578 52.9956 39.5422C53.2094 39.3264 53.3748 39.0674 53.4803 38.7824C53.5858 38.4975 53.6292 38.1933 53.6074 37.8902H53.6259Z" fill="white"/>
<path d="M65.0457 39.7601C65.0457 41.908 63.1948 42.8244 61.1589 42.8244C60.3456 42.8965 59.5293 42.7234 58.8152 42.3274C58.1012 41.9314 57.5218 41.3307 57.1519 40.6026L59.5765 39.2232C59.6749 39.5599 59.8856 39.8529 60.1734 40.0533C60.4613 40.2537 60.809 40.3495 61.1589 40.3248C61.8345 40.3248 62.1676 40.1119 62.1676 39.7416C62.1676 38.714 57.5405 39.2602 57.5405 36.0385C57.5405 34.0017 59.2618 32.9741 61.2422 32.9741C61.973 32.9519 62.6964 33.1255 63.3375 33.4772C63.9786 33.8288 64.514 34.3455 64.8884 34.9738L62.4545 36.2514C62.347 36.0069 62.1708 35.7989 61.9474 35.6526C61.7239 35.5063 61.463 35.4281 61.1959 35.4274C60.7147 35.4274 60.4186 35.6126 60.4186 35.9551C60.4556 37.0197 65.0457 36.3069 65.0457 39.7601Z" fill="white"/>
<path d="M75.2624 33.2241V42.5561H72.486V41.6859C72.1631 42.0726 71.7533 42.3773 71.2901 42.5752C70.8269 42.7731 70.3234 42.8585 69.8208 42.8246C67.97 42.8246 66.332 41.4822 66.332 38.9548V33.2241H69.1083V38.5475C69.0839 38.7743 69.1103 39.0037 69.1856 39.2191C69.2609 39.4345 69.3831 39.6304 69.5435 39.7927C69.7038 39.9549 69.8984 40.0793 70.1128 40.157C70.3272 40.2347 70.5563 40.2635 70.7833 40.2417C71.8013 40.2417 72.5139 39.6491 72.5139 38.3253V33.2241H75.2624Z" fill="white"/>
<path d="M91.3092 36.8344V42.5558H88.5328V37.0752C88.5328 36.1494 88.0794 35.5383 87.191 35.5383C86.3026 35.5383 85.7288 36.1957 85.7288 37.2973V42.5558H82.9526V37.0752C82.9526 36.1494 82.5084 35.5383 81.6107 35.5383C80.7131 35.5383 80.1578 36.1957 80.1578 37.2973V42.5558H77.3816V33.2239H80.1578V34.0849C80.448 33.7046 80.8285 33.4029 81.2649 33.2073C81.7013 33.0116 82.1797 32.9282 82.6564 32.9647C83.1353 32.9414 83.612 33.0426 84.0401 33.2583C84.4683 33.4741 84.8332 33.7971 85.0996 34.196C85.4093 33.779 85.8196 33.4473 86.2921 33.232C86.7647 33.0167 87.2841 32.9247 87.8017 32.9647C89.9118 32.9647 91.3092 34.5015 91.3092 36.8344Z" fill="white"/>
<path d="M93.6782 33.1685C94.8231 33.1685 95.7511 32.24 95.7511 31.0947C95.7511 29.9494 94.8231 29.021 93.6782 29.021C92.5334 29.021 91.6052 29.9494 91.6052 31.0947C91.6052 32.24 92.5334 33.1685 93.6782 33.1685Z" fill="white"/>
<path d="M34.4513 21.8742C39.8127 21.8742 44.1589 17.5262 44.1589 12.1627C44.1589 6.79917 39.8127 2.45117 34.4513 2.45117C29.09 2.45117 24.7437 6.79917 24.7437 12.1627C24.7437 17.5262 29.09 21.8742 34.4513 21.8742Z" fill="white"/>
<path d="M56.1525 21.8742C61.5139 21.8742 65.8601 17.5262 65.8601 12.1627C65.8601 6.79917 61.5139 2.45117 56.1525 2.45117C50.7911 2.45117 46.4448 6.79917 46.4448 12.1627C46.4448 17.5262 50.7911 21.8742 56.1525 21.8742Z" fill="white"/>
<path d="M22.458 2.45117H3.052V21.8649H22.458V2.45117Z" fill="white"/>
</svg>
