<svg width="165" height="40" viewBox="0 0 165 40" fill="none" xmlns="http://www.w3.org/2000/svg">
<g clip-path="url(#clip0_13_1546)">
<path d="M48.6042 28.2463H60.2717V24.7341H52.7511V11.5049H48.6042V28.2463Z" fill="white"/>
<path d="M67.1843 25.9048C65.5209 25.9048 64.654 24.4531 64.654 22.2755C64.654 20.098 65.5209 18.6229 67.1843 18.6229C68.8478 18.6229 69.738 20.098 69.738 22.2755C69.738 24.4531 68.8478 25.9048 67.1843 25.9048ZM67.2078 28.6209C71.0735 28.6209 73.6038 25.8814 73.6038 22.2755C73.6038 18.6697 71.0735 15.9302 67.2078 15.9302C63.3655 15.9302 60.7883 18.6697 60.7883 22.2755C60.7883 25.8814 63.3655 28.6209 67.2078 28.6209Z" fill="white"/>
<path d="M80.2948 32.3906C82.0754 32.3906 83.6451 31.9926 84.6994 31.056C85.6599 30.1897 86.2925 28.8784 86.2925 27.0755V16.258H82.6376V17.5458H82.5908C81.8879 16.5389 80.8102 15.9067 79.2171 15.9067C76.2416 15.9067 74.1799 18.3887 74.1799 21.9009C74.1799 25.577 76.6868 27.5906 79.3811 27.5906C80.8336 27.5906 81.7474 27.0053 82.4502 26.2092H82.5439V27.4033C82.5439 28.855 81.8645 29.698 80.2479 29.698C78.9828 29.698 78.3502 29.1594 78.1394 28.5272H74.4376C74.8125 31.0326 76.9914 32.3906 80.2948 32.3906ZM80.2714 24.7575C78.8422 24.7575 77.9051 23.5867 77.9051 21.7838C77.9051 19.9575 78.8422 18.7867 80.2714 18.7867C81.8645 18.7867 82.7079 20.1448 82.7079 21.7604C82.7079 23.4463 81.9348 24.7575 80.2714 24.7575Z" fill="white"/>
<path d="M93.8076 25.9048C92.1442 25.9048 91.2773 24.4531 91.2773 22.2755C91.2773 20.098 92.1442 18.6229 93.8076 18.6229C95.4711 18.6229 96.3613 20.098 96.3613 22.2755C96.3613 24.4531 95.4711 25.9048 93.8076 25.9048ZM93.831 28.6209C97.6968 28.6209 100.227 25.8814 100.227 22.2755C100.227 18.6697 97.6968 15.9302 93.831 15.9302C89.9888 15.9302 87.4116 18.6697 87.4116 22.2755C87.4116 25.8814 89.9888 28.6209 93.831 28.6209Z" fill="white"/>
<path d="M101.343 28.2463H105.161V16.2581H101.343V28.2463ZM101.343 14.5956H105.161V11.5049H101.343V14.5956Z" fill="white"/>
<path d="M106.818 32.2033H110.637V27.0053H110.684C111.433 28.0121 112.534 28.6209 114.081 28.6209C117.22 28.6209 119.305 26.1389 119.305 22.2521C119.305 18.6463 117.361 15.9067 114.174 15.9067C112.534 15.9067 111.363 16.6326 110.543 17.7097H110.473V16.258H106.818V32.2033ZM113.097 25.6706C111.457 25.6706 110.52 24.336 110.52 22.3926C110.52 20.4492 111.363 18.9741 113.026 18.9741C114.666 18.9741 115.44 20.3321 115.44 22.3926C115.44 24.4297 114.549 25.6706 113.097 25.6706Z" fill="white"/>
<path d="M125.523 28.6209C128.662 28.6209 130.982 27.2628 130.982 24.6404C130.982 21.5731 128.498 21.0345 126.39 20.6833C124.867 20.4023 123.508 20.2853 123.508 19.4423C123.508 18.6931 124.234 18.3419 125.171 18.3419C126.226 18.3419 126.952 18.6697 127.092 19.7467H130.607C130.419 17.3819 128.592 15.9067 125.195 15.9067C122.36 15.9067 120.017 17.218 120.017 19.7467C120.017 22.5565 122.243 23.1184 124.328 23.4697C125.921 23.7506 127.374 23.8677 127.374 24.9448C127.374 25.7175 126.647 26.1389 125.499 26.1389C124.234 26.1389 123.438 25.5536 123.297 24.3594H119.689C119.806 27.0053 122.008 28.6209 125.523 28.6209Z" fill="white"/>
<path d="M136.169 28.5973C137.832 28.5973 138.887 27.9417 139.754 26.771H139.824V28.2461H143.479V16.2578H139.66V22.9544C139.66 24.3827 138.863 25.3661 137.551 25.3661C136.333 25.3661 135.747 24.6403 135.747 23.329V16.2578H131.952V24.1251C131.952 26.7944 133.404 28.5973 136.169 28.5973Z" fill="white"/>
<path d="M145.14 28.2463H148.959V21.5263C148.959 20.098 149.662 19.0911 150.857 19.0911C152.005 19.0911 152.544 19.8404 152.544 21.1282V28.2463H156.362V21.5263C156.362 20.098 157.042 19.0911 158.26 19.0911C159.408 19.0911 159.947 19.8404 159.947 21.1282V28.2463H163.766V20.4492C163.766 17.7565 162.407 15.9067 159.689 15.9067C158.143 15.9067 156.854 16.5623 155.917 18.0141H155.87C155.261 16.7263 154.066 15.9067 152.497 15.9067C150.763 15.9067 149.615 16.7263 148.865 17.9672H148.795V16.258H145.14V28.2463Z" fill="white"/>
<path d="M25.3049 1.92855L21.4655 0.900391L18.23 12.9683L15.309 2.07331L11.4695 3.10146L14.6256 14.8727L6.76465 7.01647L3.95401 9.82543L12.5764 18.4428L1.83858 15.5673L0.809814 19.4044L12.5423 22.5462C12.408 21.9672 12.3369 21.3639 12.3369 20.744C12.3369 16.3561 15.8961 12.799 20.2866 12.799C24.6771 12.799 28.2363 16.3561 28.2363 20.744C28.2363 21.3599 28.1661 21.9595 28.0334 22.5351L38.6961 25.3904L39.7248 21.5533L27.9457 18.399L38.6843 15.5233L37.6555 11.6862L25.8768 14.8404L33.7377 6.98421L30.9271 4.17525L22.4242 12.673L25.3049 1.92855Z" fill="white"/>
<path d="M28.0231 22.5801C27.6939 23.9709 26.999 25.2204 26.0454 26.2214L33.77 33.9415L36.5807 31.1326L28.0231 22.5801Z" fill="white"/>
<path d="M25.9673 26.3022C25.0022 27.2873 23.7827 28.0224 22.415 28.4013L25.2259 38.8852L29.0652 37.857L25.9673 26.3022Z" fill="white"/>
<path d="M22.2715 28.4394C21.637 28.6024 20.9719 28.6891 20.2865 28.6891C19.5523 28.6891 18.8412 28.5896 18.1662 28.4033L15.3528 38.8968L19.1921 39.9249L22.2715 28.4394Z" fill="white"/>
<path d="M18.0305 28.3644C16.6837 27.9668 15.4858 27.2223 14.5405 26.2344L6.79688 33.9734L9.60751 36.7824L18.0305 28.3644Z" fill="white"/>
<path d="M14.4759 26.1661C13.5467 25.172 12.8699 23.9392 12.5478 22.5698L1.85034 25.4345L2.8791 29.2716L14.4759 26.1661Z" fill="white"/>
</g>
<defs>
<clipPath id="clip0_13_1546">
<rect width="164" height="40" fill="white" transform="translate(0.5)"/>
</clipPath>
</defs>
</svg>
