<svg width="175" height="50" viewBox="0 0 175 50" fill="none" xmlns="http://www.w3.org/2000/svg">
<path fill-rule="evenodd" clip-rule="evenodd" d="M29.4325 4.04793C27.808 2.42496 25.1748 2.4255 23.5511 4.04914L9.99937 17.5996L9.98782 17.5963L9.94499 17.6008C9.96263 17.6093 9.97995 17.6177 9.99691 17.6261C7.61966 17.8751 6.61102 18.5891 6.5996 19.506C6.60363 19.8471 6.74364 20.2155 7.00083 20.5979L6.98846 20.6103C9.14963 23.8682 19.856 28.1659 27.4304 25.2541C21.7537 28.091 8.38465 28.6533 4.45796 23.1451C3.60521 24.0671 3.24842 25.2789 3.38278 26.4433C4.4201 32.1579 16.0174 33.7169 27.6148 25.4372L30.1245 27.9456C27.0016 31.1523 22.3888 49.779 29.2429 46.9351C29.4055 46.8247 29.5435 46.726 29.7312 46.5841L30.0367 46.2958C30.0191 46.3002 30.0016 46.3043 29.9842 46.3084L48.3412 28.987C50.0456 27.3786 50.0842 24.6809 48.4263 23.0245L29.4325 4.04793ZM27.4335 9.69281L28.0608 7.18445L28.6882 9.69281L30.5705 10.3199L28.6882 10.947L28.0608 13.4554L27.4335 10.947L25.5512 10.3199L27.4335 9.69281ZM19.6677 17.8813L20.086 16.209L20.5042 17.8813L21.7591 18.2993L20.5042 18.7173L20.086 20.3896L19.6677 18.7173L18.413 18.2993L19.6677 17.8813ZM34.2354 31.9866L33.8172 33.6588L32.5624 34.0769L33.8172 34.495L34.2354 36.1671L34.6537 34.495L35.9086 34.0769L34.6537 33.6588L34.2354 31.9866Z" fill="white"/>
<path d="M60.2017 13.3428H56.3062V30.9115H67.0902V27.469H60.2017V13.3428Z" fill="white"/>
<path d="M67.4622 24.9523C67.4622 28.7035 69.98 31.1963 73.7805 31.1963C77.5574 31.1963 80.0752 28.7035 80.0752 24.9523C80.0752 21.2011 77.5574 18.6846 73.7805 18.6846C69.98 18.6846 67.4622 21.2011 67.4622 24.9523ZM71.144 24.9286C71.144 23.1479 72.1891 21.9609 73.7805 21.9609C75.3483 21.9609 76.3935 23.1479 76.3935 24.9286C76.3935 26.7329 75.3483 27.92 73.7805 27.92C72.1891 27.92 71.144 26.7329 71.144 24.9286Z" fill="white"/>
<path d="M80.6636 24.7625C80.6636 28.3474 82.9915 30.7691 86.2932 30.7691C87.8847 30.7691 89.2624 30.1993 89.9512 29.2734V30.9116C89.9512 32.5497 88.9298 33.6419 87.1246 33.6419C85.5093 33.6419 84.393 32.8821 84.3217 31.5288H80.6162C80.9487 34.7814 83.4665 36.9657 86.9108 36.9657C90.9727 36.9657 93.538 34.3304 93.538 30.1518V19.0408H90.2362L90.0463 20.2516C89.3811 19.2782 87.9797 18.6372 86.3645 18.6372C83.0391 18.6372 80.6636 21.13 80.6636 24.7625ZM84.3692 24.6675C84.3692 22.9582 85.5094 21.8185 86.9583 21.8185C88.6448 21.8185 89.88 22.9344 89.88 24.6675C89.88 26.4007 88.6686 27.5878 86.9821 27.5878C85.5331 27.5878 84.3692 26.4007 84.3692 24.6675Z" fill="white"/>
<path d="M94.6042 24.9523C94.6042 28.7035 97.122 31.1963 100.923 31.1963C104.699 31.1963 107.217 28.7035 107.217 24.9523C107.217 21.2011 104.699 18.6846 100.923 18.6846C97.122 18.6846 94.6042 21.2011 94.6042 24.9523ZM98.286 24.9286C98.286 23.1479 99.3312 21.9609 100.923 21.9609C102.49 21.9609 103.535 23.1479 103.535 24.9286C103.535 26.7329 102.49 27.92 100.923 27.92C99.3312 27.92 98.286 26.7329 98.286 24.9286Z" fill="white"/>
<path d="M110.371 17.189C111.511 17.189 112.438 16.2631 112.438 15.0997C112.438 13.9364 111.511 13.0342 110.371 13.0342C109.207 13.0342 108.281 13.9364 108.281 15.0997C108.281 16.2631 109.207 17.189 110.371 17.189ZM108.518 30.9116H112.2V19.0408H108.518V30.9116Z" fill="white"/>
<path d="M114.343 36.6097H117.953V29.7247C118.643 30.6269 120.21 31.2442 121.85 31.2442C125.389 31.2442 127.527 28.5377 127.431 24.7865C127.336 20.9641 125.128 18.6611 121.826 18.6611C120.139 18.6611 118.548 19.3971 117.883 20.4893L117.692 19.041H114.343V36.6097ZM118.025 24.9763C118.025 23.1958 119.213 22.0087 120.923 22.0087C122.657 22.0087 123.75 23.2195 123.75 24.9763C123.75 26.7333 122.657 27.9441 120.923 27.9441C119.213 27.9441 118.025 26.757 118.025 24.9763Z" fill="white"/>
<path d="M127.821 27.1606C127.916 29.5585 129.817 31.2204 132.81 31.2204C135.684 31.2204 137.679 29.7009 137.679 27.2556C137.679 25.4987 136.633 24.3354 134.686 23.8606L132.571 23.3382C131.811 23.1483 131.337 22.9584 131.337 22.3411C131.337 21.7238 131.835 21.3202 132.571 21.3202C133.403 21.3202 133.949 21.8662 133.925 22.6735H137.228C137.132 20.2044 135.257 18.6611 132.643 18.6611C130.006 18.6611 128.036 20.2281 128.036 22.6022C128.036 24.193 128.914 25.4987 131.265 26.116L133.356 26.662C133.973 26.8282 134.234 27.1131 134.234 27.5168C134.234 28.1103 133.688 28.4902 132.762 28.4902C131.693 28.4902 131.123 27.9916 131.123 27.1606H127.821Z" fill="white"/>
<path d="M143.278 31.2204C144.728 31.2204 146.176 30.5557 146.912 29.5822L147.15 30.9118H150.595V19.041H146.936V25.2138C146.936 26.9944 146.413 27.9679 144.728 27.9679C143.42 27.9679 142.566 27.3743 142.566 25.1663V19.041H138.907V26.4958C138.907 29.3211 140.475 31.2204 143.278 31.2204Z" fill="white"/>
<path d="M156.395 30.9116V24.4301C156.395 22.4358 157.464 21.866 158.51 21.866C159.673 21.866 160.433 22.5783 160.433 24.0503V30.9116H164.044V24.4301C164.044 22.4121 165.089 21.8423 166.134 21.8423C167.298 21.8423 168.082 22.5545 168.082 24.0503V30.9116H171.645V23.1481C171.645 20.4416 170.22 18.6372 167.155 18.6372C165.446 18.6372 164.044 19.4682 163.426 20.7501C162.714 19.4682 161.478 18.6372 159.507 18.6372C158.201 18.6372 156.989 19.2307 156.277 20.1804L156.134 19.0408H152.713V30.9116H156.395Z" fill="white"/>
<path fill-rule="evenodd" clip-rule="evenodd" d="M49.7549 5.70801C45.8305 5.70801 42.1087 7.4503 39.5963 10.4637L30.6581 21.1842L35.8194 13.4461L27.2521 17.116C26.164 17.5821 25.8911 18.9989 26.728 19.8355L29.485 22.5911L28.0774 24.2794L31.1742 27.3747L32.8634 25.9677L35.6204 28.7234C36.4573 29.5599 37.875 29.2871 38.3412 28.1997L42.0129 19.6366L34.271 24.7953L44.9969 15.8615C48.0118 13.3504 49.7549 9.63053 49.7549 5.70801ZM41.2388 14.2201C42.0939 15.0748 43.4804 15.0748 44.3356 14.2201C45.1907 13.3653 45.1907 11.9796 44.3356 11.1249C43.4804 10.2701 42.0939 10.2701 41.2388 11.1249C40.3836 11.9796 40.3836 13.3653 41.2388 14.2201Z" fill="white"/>
<path opacity="0.6" d="M4.3584 23.001C6.40884 30.0225 18.8751 29.6564 27.428 25.2552C21.7008 28.1157 8.15271 28.662 4.3584 23.001Z" fill="white"/>
<path opacity="0.6" d="M29.243 46.9351C23.4675 49.3314 25.8339 36.4832 28.59 30.4614C26.581 35.8138 24.866 47.6128 30.0367 46.2959L29.7313 46.5841C29.5436 46.7261 29.4056 46.8248 29.243 46.9351Z" fill="white"/>
</svg>
