<svg width="107" height="40" viewBox="0 0 107 40" fill="none" xmlns="http://www.w3.org/2000/svg">
<path d="M22.103 20.2837C22.103 18.8234 22.981 17.8062 24.3227 17.8062C25.6645 17.8062 26.5424 18.8234 26.5424 20.2837C26.5424 21.7276 25.6645 22.7612 24.3227 22.7612C22.981 22.7612 22.103 21.7276 22.103 20.2837Z" fill="white"/>
<path d="M33.4503 17.7407C32.1748 17.7407 31.3135 18.7251 31.3135 20.0706C31.3135 21.4324 32.1914 22.4497 33.4503 22.4497C34.8417 22.4497 35.7694 21.416 35.7694 20.0706C35.7694 18.7416 34.8417 17.7407 33.4503 17.7407Z" fill="white"/>
<path d="M40.8445 20.2837C40.8445 18.8234 41.7224 17.8062 43.0642 17.8062C44.4059 17.8062 45.2838 18.8234 45.2838 20.2837C45.2838 21.7276 44.4059 22.7612 43.0642 22.7612C41.7224 22.7612 40.8445 21.7276 40.8445 20.2837Z" fill="white"/>
<path d="M54.3433 20.3003C54.3433 18.84 55.2378 17.8228 56.6457 17.8228C58.0538 17.8228 58.8985 18.8564 58.8985 20.3003C58.8985 21.7442 58.0538 22.7614 56.6457 22.7614C55.2378 22.7614 54.3433 21.7606 54.3433 20.3003Z" fill="white"/>
<path fill-rule="evenodd" clip-rule="evenodd" d="M53.5001 37.4495C81.6452 37.4495 104.461 29.5193 104.461 19.7369C104.461 9.95456 81.6452 2.02441 53.5001 2.02441C25.3548 2.02441 2.53857 9.95456 2.53857 19.7369C2.53857 29.5193 25.3548 37.4495 53.5001 37.4495ZM18.8287 24.3532V12.1459H16.8078V24.3532H18.8287ZM20.0656 20.284C20.0656 22.778 21.7552 24.5501 24.3228 24.5501C26.8903 24.5501 28.5799 22.778 28.5799 20.284C28.5799 17.7901 26.8903 16.0181 24.3228 16.0181C21.7552 16.0181 20.0656 17.7901 20.0656 20.284ZM33.1026 24.1891C30.8001 24.1891 29.2595 22.4827 29.2595 20.12C29.2595 17.7409 30.8332 15.9852 33.1688 15.9852C34.3781 15.9852 35.4051 16.4939 35.902 17.3471L36.018 16.2478H37.807V23.943C37.807 26.6174 36.1174 28.3402 33.467 28.3402C31.2142 28.3402 29.5743 26.962 29.3093 24.8454H31.3467C31.4626 25.9119 32.3241 26.519 33.5829 26.519C34.991 26.519 35.8358 25.6329 35.8358 24.3039V22.9257C35.3222 23.7132 34.2952 24.1891 33.1026 24.1891ZM38.807 20.284C38.807 22.778 40.4967 24.5501 43.0642 24.5501C45.6317 24.5501 47.3213 22.778 47.3213 20.284C47.3213 17.7901 45.6317 16.0181 43.0642 16.0181C40.4967 16.0181 38.807 17.7901 38.807 20.284ZM50.7176 13.3929C50.7176 14.0656 50.171 14.5906 49.5084 14.5906C48.8293 14.5906 48.3157 14.0656 48.3157 13.3929C48.3157 12.7365 48.8293 12.2115 49.5084 12.2115C50.171 12.2115 50.7176 12.7365 50.7176 13.3929ZM50.5188 16.2478V24.3532H48.498V16.2478H50.5188ZM52.2893 28.1105H54.2606V23.2374C54.774 24.0742 55.8838 24.5664 57.1097 24.5664C59.5281 24.5664 60.9692 22.7288 60.9361 20.202C60.8864 17.6588 59.4122 16.0016 57.0931 16.0016C55.8508 16.0016 54.7243 16.5431 54.2274 17.4784L54.1114 16.2478H52.2893V28.1105ZM64.729 24.5664C62.7744 24.5664 61.5155 23.5327 61.4493 21.9248H63.2879C63.2879 22.6304 63.8014 23.0405 64.6959 23.0405C65.4414 23.0405 66.0543 22.7452 66.0543 22.1053C66.0543 21.6459 65.7229 21.3998 65.1928 21.2521L63.7683 20.8911C62.1947 20.4809 61.5818 19.6113 61.5818 18.5612C61.5818 17.0189 62.8904 16.0016 64.6462 16.0016C66.4186 16.0016 67.6279 17.0189 67.6941 18.6269H65.8555C65.8555 17.9214 65.3585 17.4948 64.5965 17.4948C63.8677 17.4948 63.4204 17.8885 63.4204 18.4464C63.4204 18.9715 63.8345 19.1847 64.4474 19.3488L65.8886 19.6934C67.2304 20.0215 67.9591 20.8091 67.9591 21.9741C67.9591 23.5492 66.6505 24.5664 64.729 24.5664ZM72.1512 24.5664C73.2606 24.5664 74.3206 24.0578 74.8012 23.3031L74.934 24.3532H76.8222V16.2478H74.8012V20.4974C74.8012 21.9576 74.238 22.778 72.913 22.778C71.8862 22.778 71.1739 22.2858 71.1739 20.6122V16.2478H69.1527V21.3177C69.1527 23.2539 70.2129 24.5664 72.1512 24.5664ZM80.6269 19.6934V24.3532H78.6059V16.2478H80.4609L80.5605 17.1666C81.041 16.4447 81.9025 16.0016 82.8628 16.0016C84.221 16.0016 85.1157 16.5923 85.563 17.544C85.9608 16.5923 86.9382 16.0016 88.1805 16.0016C90.1683 16.0016 91.2114 17.1831 91.2114 19.0535V24.3532H89.2567V19.5129C89.2567 18.3644 88.6278 17.7573 87.6505 17.7573C86.6894 17.7573 85.9276 18.3808 85.9276 19.7098V24.3532H83.956V19.5129C83.956 18.3644 83.3271 17.7573 82.366 17.7573C81.4057 17.7573 80.6269 18.3808 80.6269 19.6934Z" fill="white"/>
</svg>
