<svg width="219" height="40" viewBox="0 0 219 40" fill="none" xmlns="http://www.w3.org/2000/svg">
<g clip-path="url(#clip0_13_1534)">
<path d="M122.855 29.5236H127.518V11.935H122.855V29.5236ZM122.855 9.19214H127.518V5.00928H122.855V9.19214Z" fill="white"/>
<path d="M130.523 35.2837H135.186V27.5351H135.254C136.248 29.0437 137.86 30.038 140.328 30.038C144.854 30.038 147.94 26.438 147.94 20.7466C147.94 15.2608 144.957 11.4551 140.294 11.4551C137.894 11.4551 136.248 12.5866 135.117 14.1294H135.014V11.9351H130.523V35.2837ZM139.334 26.1637C136.557 26.1637 135.083 24.0723 135.083 20.8837C135.083 17.7294 136.248 15.2266 139.163 15.2266C142.043 15.2266 143.208 17.558 143.208 20.8837C143.208 24.2094 141.7 26.1637 139.334 26.1637Z" fill="white"/>
<path d="M157.241 30.038C161.63 30.038 164.647 27.9123 164.647 24.3808C164.647 20.2666 161.39 19.4437 158.441 18.8266C155.938 18.3123 153.607 18.1751 153.607 16.6666C153.607 15.398 154.807 14.7123 156.624 14.7123C158.613 14.7123 159.813 15.398 160.018 17.2837H164.235C163.893 13.7523 161.321 11.4551 156.693 11.4551C152.681 11.4551 149.527 13.2723 149.527 17.078C149.527 20.918 152.613 21.7751 155.767 22.3923C158.167 22.8723 160.395 23.0437 160.395 24.7237C160.395 25.958 159.23 26.7466 157.173 26.7466C155.081 26.7466 153.641 25.8551 153.333 23.8323H149.013C149.287 27.5694 152.133 30.038 157.241 30.038Z" fill="white"/>
<path d="M182.35 29.5237V11.9351H177.687V22.0837C177.687 24.4151 176.35 26.0608 174.156 26.0608C172.167 26.0608 171.242 24.9294 171.242 22.8723V11.9351H166.613V23.6608C166.613 27.5008 168.807 30.0037 172.716 30.0037C175.185 30.0037 176.556 29.078 177.756 27.4666H177.859V29.5237H182.35Z" fill="white"/>
<path d="M185.366 29.5237H190.029V19.3066C190.029 16.9751 191.298 15.4666 193.184 15.4666C194.898 15.4666 195.892 16.4951 195.892 18.4837V29.5237H200.555V19.3066C200.555 16.9751 201.755 15.4666 203.709 15.4666C205.424 15.4666 206.418 16.4951 206.418 18.4837V29.5237H211.081V17.6951C211.081 13.8551 208.989 11.4551 205.286 11.4551C203.058 11.4551 201.206 12.6208 200.006 14.5408H199.938C199.081 12.6894 197.298 11.4551 195.069 11.4551C192.635 11.4551 190.921 12.6894 189.961 14.3008H189.858V11.9351H185.366V29.5237Z" fill="white"/>
<path d="M1.32422 29.5236H5.98707V5.00928H1.32422V29.5236Z" fill="white"/>
<path d="M17.3883 30.038C22.8397 30.038 26.5768 25.9923 26.5768 20.7466C26.5768 15.5008 22.8397 11.4551 17.3883 11.4551C11.9368 11.4551 8.19971 15.5008 8.19971 20.7466C8.19971 25.9923 11.9368 30.038 17.3883 30.038ZM17.3883 26.4723C14.5083 26.4723 12.9311 24.1751 12.9311 20.7466C12.9311 17.318 14.5083 14.9866 17.3883 14.9866C20.234 14.9866 21.8454 17.318 21.8454 20.7466C21.8454 24.1751 20.234 26.4723 17.3883 26.4723Z" fill="white"/>
<path d="M36.4929 35.5237C39.0986 35.5237 41.3615 34.9066 42.8357 33.5351C44.1386 32.3351 44.9272 30.6551 44.9272 28.1866V11.9351H40.4358V13.7866H40.3672C39.3043 12.3123 37.6929 11.4551 35.4986 11.4551C31.0415 11.4551 27.8872 14.8151 27.8872 20.0608C27.8872 25.3751 31.7272 28.4608 35.6358 28.4608C37.8643 28.4608 39.2015 27.5694 40.23 26.4037H40.3329V28.3237C40.3329 30.7237 39.0643 31.9923 36.4243 31.9923C34.2643 31.9923 33.27 31.1351 32.8929 30.038H28.2643C28.7443 33.4666 31.6929 35.5237 36.4929 35.5237ZM36.4243 24.7237C34.0243 24.7237 32.4472 22.9751 32.4472 19.9923C32.4472 17.0437 34.0243 15.1923 36.39 15.1923C39.2015 15.1923 40.5729 17.3866 40.5729 19.958C40.5729 22.5637 39.3729 24.7237 36.4243 24.7237Z" fill="white"/>
<path d="M56.2611 30.038C61.7125 30.038 65.4497 25.9923 65.4497 20.7466C65.4497 15.5008 61.7125 11.4551 56.2611 11.4551C50.8097 11.4551 47.0725 15.5008 47.0725 20.7466C47.0725 25.9923 50.8097 30.038 56.2611 30.038ZM56.2611 26.4723C53.3811 26.4723 51.804 24.1751 51.804 20.7466C51.804 17.318 53.3811 14.9866 56.2611 14.9866C59.1068 14.9866 60.7183 17.318 60.7183 20.7466C60.7183 24.1751 59.1068 26.4723 56.2611 26.4723Z" fill="white"/>
<path d="M212.775 9.04771C212.775 8.25873 213.415 7.61914 214.204 7.61914H217.061C217.85 7.61914 218.49 8.25873 218.49 9.04771C218.49 9.83669 217.85 10.4763 217.061 10.4763H214.204C213.415 10.4763 212.775 9.83669 212.775 9.04771Z" fill="white"/>
<path fill-rule="evenodd" clip-rule="evenodd" d="M93.7278 0C104.773 0 113.728 8.95431 113.728 20C113.728 31.0457 104.773 40 93.7278 40C82.6821 40 73.7278 31.0457 73.7278 20C73.7278 8.95431 82.6821 0 93.7278 0ZM93.0049 1.49659C90.7232 1.81769 88.5506 3.65108 86.8641 6.7174C86.3749 7.60683 85.9335 8.58946 85.5489 9.65044C87.8421 9.07417 90.3612 8.73442 93.0049 8.68187V1.49659ZM83.8585 10.1308C84.3369 8.62958 84.922 7.2484 85.5973 6.02065C86.4333 4.50059 87.4255 3.18795 88.5434 2.17977C82.4645 3.94523 77.673 8.73679 75.9075 14.8157C76.9157 13.6978 78.2283 12.7056 79.7484 11.8696C80.9762 11.1943 82.3573 10.6091 83.8585 10.1308ZM83.3782 11.8211C82.8019 14.1143 82.4622 16.6334 82.4096 19.2771H75.2243C75.5454 16.9954 77.3788 14.8228 80.4452 13.1364C81.3346 12.6472 82.3172 12.2058 83.3782 11.8211ZM83.8557 19.2771C83.9154 16.392 84.3308 13.6834 85.018 11.2902C87.4112 10.603 90.1198 10.1876 93.0049 10.1279V13.2508C91.9286 16.0062 89.7334 18.2012 86.9779 19.2771H83.8557ZM82.4096 20.7229H75.2243C75.5454 23.0046 77.3788 25.1771 80.4452 26.8636C81.3346 27.3528 82.3172 27.7942 83.3782 28.1789C82.8019 25.8857 82.4622 23.3666 82.4096 20.7229ZM85.018 28.7098C84.3308 26.3166 83.9154 23.608 83.8557 20.7229H86.9779C89.7334 21.7988 91.9286 23.9938 93.0049 26.7492V29.8721C90.1198 29.8124 87.4112 29.397 85.018 28.7098ZM83.8585 29.8692C82.3573 29.3909 80.9762 28.8057 79.7484 28.1304C78.2283 27.2944 76.9157 26.3022 75.9075 25.1843C77.673 31.2632 82.4645 36.0548 88.5434 37.8202C87.4255 36.812 86.4333 35.4994 85.5973 33.9793C84.922 32.7516 84.3369 31.3704 83.8585 29.8692ZM93.0049 38.5034C90.7232 38.1823 88.5506 36.3489 86.8641 33.2826C86.3749 32.3932 85.9335 31.4105 85.5489 30.3496C87.8421 30.9258 90.3612 31.2656 93.0049 31.3181V38.5034ZM98.9121 37.8202C100.03 36.812 101.022 35.4994 101.858 33.9793C102.533 32.7516 103.119 31.3704 103.597 29.8692C105.098 29.3909 106.479 28.8057 107.707 28.1304C109.227 27.2944 110.54 26.3022 111.548 25.1843C109.782 31.2632 104.991 36.0548 98.9121 37.8202ZM101.907 30.3496C101.522 31.4105 101.08 32.3932 100.591 33.2826C98.9049 36.3489 96.7323 38.1823 94.4506 38.5034V31.3181C97.0943 31.2656 99.6134 30.9258 101.907 30.3496ZM104.077 28.1789C105.138 27.7942 106.121 27.3528 107.01 26.8636C110.077 25.1772 111.91 23.0046 112.231 20.7229H105.046C104.993 23.3666 104.653 25.8857 104.077 28.1789ZM103.6 20.7229C103.54 23.608 103.125 26.3166 102.437 28.7098C100.044 29.397 97.3357 29.8124 94.4506 29.8721V26.7515C95.5266 23.9951 97.7223 21.7991 100.478 20.7229H103.6ZM105.046 19.2771H112.231C111.91 16.9954 110.077 14.8228 107.01 13.1364C106.121 12.6472 105.138 12.2058 104.077 11.8211C104.653 14.1143 104.993 16.6334 105.046 19.2771ZM102.437 11.2902C103.125 13.6834 103.54 16.392 103.6 19.2771H100.479C97.7223 18.2009 95.5266 16.0049 94.4506 13.2485V10.1279C97.3357 10.1876 100.044 10.603 102.437 11.2902ZM103.597 10.1308C105.098 10.6091 106.479 11.1943 107.707 11.8696C109.227 12.7056 110.54 13.6978 111.548 14.8157C109.782 8.73679 104.991 3.94523 98.9121 2.17977C100.03 3.18795 101.022 4.50059 101.858 6.02065C102.533 7.2484 103.119 8.62958 103.597 10.1308ZM94.4506 1.49659C96.7323 1.81769 98.9049 3.65108 100.591 6.7174C101.08 7.60684 101.522 8.58946 101.907 9.65044C99.6134 9.07417 97.0943 8.73442 94.4506 8.68187V1.49659Z" fill="white"/>
</g>
<defs>
<clipPath id="clip0_13_1534">
<rect width="218" height="40" fill="white" transform="translate(0.5)"/>
</clipPath>
</defs>
</svg>
